<svg id="Calque_1" data-name="Calque 1" xmlns="http://www.w3.org/2000/svg" viewBox="0 0 595.28 176.88"><defs><style>.cls-1{fill:#eb5b49;}.cls-2{fill:#fff;}</style></defs><title>HACKT_LOGO_VECTO</title><rect class="cls-1" x="78.24" y="44.69" width="87.49" height="87.49"/><path class="cls-2" d="M107.12,107.31V69.57h7.6V84.72h14.53V69.57h7.6v37.74h-7.6V91.4H114.72v15.91Z"/><path class="cls-1" d="M204.39,107.31h-8.27l15.3-37.74h6.68L233,107.31h-8.31L222,99.91H207.09Zm10-28.76-5.35,15.29h10.86Z"/><path class="cls-1" d="M322,94.66A19,19,0,0,1,303.53,108a19.58,19.58,0,1,1,0-39.16A19.22,19.22,0,0,1,322,82.42h-8a11.72,11.72,0,0,0-10.55-6.88c-7.35,0-12.09,6.17-12.09,12.85,0,6.88,5,13,12.14,13,6.73,0,9.79-5.3,10.5-6.68Z"/><path class="cls-1" d="M379.11,69.57h7.6V87.06L399.2,69.57h8L393.54,88.39l15,18.92h-9.28l-12.6-16.93v16.93h-7.6Z"/><path class="cls-1" d="M468.1,76.25H460V69.57h23.86v6.68H475.7v31.06h-7.6Z"/></svg>